# xmcd
#
# Track frame offsets: 
#        150
#        18468
#        33795
#        52943
#        72176
#        98649
#        114458
#        148294
#        169520
#        183926
#
# Disc length: 2786 seconds
#
# Revision: 0
# Processed by: cddbd v1.5.2PL0 Copyright (c) Steve Scherf et al.
# Submitted via: ExactAudioCopy v0.99pb5
#
DISCID=7b0ae00a
DTITLE=Marcos Coll - Under the wings CD2
DYEAR=2011
DGENRE=Blues
TTITLE0=I ain't superstitious
TTITLE1=El beat de mi corazón
TTITLE2=I ain't gonna pray
TTITLE3=Komanine
TTITLE4=La paloma
TTITLE5=Mellow apples
TTITLE6=I can't leave you alone
TTITLE7=Two way street
TTITLE8=Illinois
TTITLE9=Blue pack Jam
EXTD=
EXTT0=
EXTT1=
EXTT2=
EXTT3=
EXTT4=
EXTT5=
EXTT6=
EXTT7=
EXTT8=
EXTT9=
PLAYORDER=
